<?xml version="1.0" encoding="UTF-8"?><svg id="Layer_2" xmlns="http://www.w3.org/2000/svg" viewBox="0 0 1567.081 592.127"><defs><style>.cls-1{fill:#fff;}</style></defs><g id="Layer_1-2"><polygon class="cls-1" points="853.202 0 383.885 0 0 0 0 481.963 110.164 592.127 110.624 592.127 383.885 592.127 742.579 592.127 743.038 592.127 853.202 481.963 853.202 311.867 803.39 262.055 853.202 212.243 853.202 0"/><path class="cls-1" d="M908.104,225.053v-64.676h29.213v63.865c0,10.143,4.219,15.499,14.365,15.499,8.683,0,15.662-4.707,19.393-13.227v-66.137h29.215v101.842h-24.589l-2.271-15.662c-6.574,12.497-16.717,18.177-31.08,18.177-22.885,0-34.246-12.497-34.246-39.682Z"/><path class="cls-1" d="M1070.8,182.855c-9.82,0-17.043,6.168-20.044,17.285v62.079h-29.213v-101.842h24.587l2.111,14.526c6.491-11.685,16.311-17.042,29.701-17.042,23.776,0,35.785,12.254,35.785,39.682v64.676h-29.213v-63.864c0-9.901-4.138-15.5-13.714-15.5Z"/><path class="cls-1" d="M1129.545,210.934c0-30.026,14.525-53.072,43.413-53.072,11.524,0,20.207,3.976,25.563,12.741v-48.527h29.213v140.144h-23.046l-3.166-15.581c-5.435,12.172-16.229,18.096-30.269,18.096-27.995,0-41.709-24.02-41.709-53.801ZM1180.748,241.445c8.034,0,14.609-4.301,17.773-13.227v-33.191c-2.922-9.25-9.09-13.795-17.366-13.795-13.47,0-19.963,11.198-19.963,30.187s6.33,30.026,19.556,30.026Z"/><path class="cls-1" d="M1244.364,211.177c0-30.837,16.473-53.315,49.42-53.315,29.457,0,44.064,19.314,44.064,47.472,0,4.788-.407,9.901-1.299,15.175h-62.241c2.111,12.66,9.413,21.1,24.831,21.1,10.631,0,18.828-3.246,25.726-10.144l10.954,16.798c-9.738,10.955-23.208,16.473-40.007,16.473-36.436,0-51.447-24.02-51.447-53.558ZM1309.364,200.465c.486-12.822-3.652-21.18-15.825-21.18-11.928,0-17.854,8.358-19.395,21.18h35.22Z"/><path class="cls-1" d="M1355.207,160.377h24.587l2.273,18.016c6.247-15.419,17.122-21.424,33.758-20.531v31.486c-14.932-.893-24.833,1.785-31.405,13.228v59.644h-29.213v-101.842Z"/><path class="cls-1" d="M934.316,416.818l-2.841,14.282h-23.046v-140.144h29.213v50.637c6.168-10.225,15.985-14.851,27.916-14.851,24.587,0,39.926,18.177,39.926,51.854,0,33.434-16.15,55.019-42.199,55.019-12.74,0-23.046-5.681-28.969-16.798ZM955.495,410.245c12.984,0,19.558-11.361,19.558-30.512,0-17.204-5.275-29.62-19.07-29.62-8.36,0-15.095,4.464-18.34,14.201v32.298c3.245,9.089,9.576,13.633,17.852,13.633Z"/><path class="cls-1" d="M1021.626,329.258h24.587l2.273,18.016c6.247-15.419,17.122-21.424,33.758-20.531v31.486c-14.932-.893-24.833,1.785-31.405,13.228v59.644h-29.213v-101.842Z"/><path class="cls-1" d="M1113.239,287.548c10.954,0,17.527,5.924,17.527,14.931,0,9.089-6.572,15.012-17.527,15.012-10.875,0-17.529-5.924-17.529-15.012,0-9.007,6.654-14.931,17.529-14.931ZM1098.632,329.258h29.213v101.842h-29.213v-101.842Z"/><path class="cls-1" d="M1144.965,379.814c0-30.024,14.525-53.071,43.413-53.071,11.524,0,20.207,3.976,25.563,12.741v-48.527h29.213v140.144h-23.046l-3.166-15.581c-5.435,12.172-16.229,18.096-30.269,18.096-27.995,0-41.709-24.02-41.709-53.802ZM1196.168,410.326c8.034,0,14.609-4.301,17.773-13.227v-33.191c-2.922-9.25-9.09-13.795-17.366-13.795-13.47,0-19.963,11.198-19.963,30.187s6.33,30.026,19.556,30.026Z"/><path class="cls-1" d="M1264.003,455.527l10.954-19.557c9.82,7.303,21.504,11.36,31.81,11.36,20.451,0,25.156-10.306,25.156-24.507v-9.007c-5.68,11.361-15.823,16.555-28.969,16.555-27.834,0-41.548-23.29-41.548-52.179,0-29.132,14.607-51.367,43.576-51.367,13.716,0,23.29,5.762,28.564,17.447l3.003-15.013h23.046v91.618c0,30.999-17.041,49.176-51.285,49.176-18.177,0-32.623-4.869-44.308-14.525ZM1312.612,406.918c8.032,0,14.607-4.139,17.771-12.497v-31.405c-2.922-8.763-9.088-13.064-17.366-13.064-13.47,0-19.963,10.549-19.963,28.483,0,18.096,6.33,28.483,19.558,28.483Z"/><path class="cls-1" d="M1376.061,380.058c0-30.837,16.473-53.315,49.42-53.315,29.455,0,44.064,19.313,44.064,47.472,0,4.788-.407,9.901-1.299,15.175h-62.241c2.111,12.66,9.413,21.1,24.831,21.1,10.631,0,18.828-3.246,25.726-10.144l10.954,16.798c-9.738,10.955-23.208,16.473-40.007,16.473-36.436,0-51.447-24.02-51.447-53.558ZM1441.061,369.346c.486-12.822-3.652-21.18-15.825-21.18-11.928,0-17.854,8.358-19.395,21.18h35.22Z"/><path class="cls-1" d="M1481.225,419.172l12.742-20.207c10.306,8.277,21.504,12.497,32.459,12.497,8.278,0,12.658-3.002,12.658-8.033,0-6.168-5.194-7.872-13.714-9.9l-8.114-1.867c-16.717-4.058-32.461-11.361-32.461-32.784,0-19.963,15.662-32.135,39.521-32.135,17.364,0,32.54,5.275,42.764,15.094l-13.388,18.908c-8.116-7.71-17.935-12.011-29.134-12.011-8.439,0-12.496,3.408-12.496,8.116,0,6.411,5.031,8.439,13.795,10.306l7.953,1.866c20.042,4.626,32.703,11.767,32.703,31.892,0,20.693-15.176,32.703-39.521,32.703-18.419,0-32.703-4.382-45.768-14.444Z"/></g></svg>